<?xml version="1.0" encoding="UTF-8"?>
<!-- Generated by jsxcad -->
<!DOCTYPE svg PUBLIC "-//W3C//DTD SVG 1.1 Tiny//EN" "http://www.w3.org/Graphics/SVG/1.1/DTD/svg11-tiny.dtd">
<svg viewBox="-250 -250 500 500" width="500" height="500" xmlns="http://www.w3.org/2000/svg"><path d="M47.63482271805204,89.12176046559642L48.638770550002064,96.26199426306765L50.76951762886237,95.23434846002681z" style="fill:rgb(162,50,222)"/><path d="M45.490496399394154,90.15640913665584L46.69057746087723,97.58198361812234L48.638770550002064,96.26199426306765z" style="fill:rgb(183,62,221)"/><path d="M49.881564512756086,88.41810235600603L50.76951762886237,95.23434846002681L53.00305518099619,94.53758909837906z" style="fill:rgb(139,40,220)"/><path d="M46.69057746087723,97.58198361812234L41.8235440849542,93.05280354237676L44.99810159885019,99.14508597531872z" style="fill:rgb(203,77,216)"/><path d="M52.14661497708983,88.07219044089578L53.00305518099619,94.53758909837906L55.255757568004675,94.19821483642394z" style="fill:rgb(115,34,214)"/><path d="M44.99810159885019,99.14508597531872L40.43903227104151,94.80658906373097L43.62533625908881,100.8930499301231z" style="fill:rgb(220,94,208)"/><path d="M54.344920020080416,88.09777679968231L55.255757568004675,94.19821483642394L57.44301230085365,94.22972844524676z" style="fill:rgb(92,32,204)"/><path d="M48.638770550002064,96.26199426306765L47.63482271805204,89.12176046559642L45.490496399394154,90.15640913665584z" style="fill:rgb(162,50,222)"/><path d="M46.69057746087723,97.58198361812234L45.490496399394154,90.15640913665584L43.52885527629917,91.48324941724074z" style="fill:rgb(183,62,221)"/><path d="M50.76951762886237,95.23434846002681L49.881564512756086,88.41810235600603L47.63482271805204,89.12176046559642z" style="fill:rgb(139,40,220)"/><path d="M43.62533625908881,100.8930499301231L39.42829034742873,96.67907892781373L42.62479702266679,102.76055724671491z" style="fill:rgb(233,112,197)"/><path d="M41.8235440849542,93.05280354237676L46.69057746087723,97.58198361812234L43.52885527629917,91.48324941724074z" style="fill:rgb(203,77,216)"/><path d="M53.00305518099619,94.53758909837906L52.14661497708983,88.07219044089578L49.881564512756086,88.41810235600603z" style="fill:rgb(115,34,214)"/><path d="M56.393437351793835,88.49500652730403L57.44301230085365,94.22972844524676L59.48220335435346,94.63204254795838z" style="fill:rgb(71,33,192)"/><path d="M40.43903227104151,94.80658906373097L44.99810159885019,99.14508597531872L41.8235440849542,93.05280354237676z" style="fill:rgb(220,94,208)"/><path d="M55.255757568004675,94.19821483642394L54.344920020080416,88.09777679968231L52.14661497708983,88.07219044089578z" style="fill:rgb(92,32,204)"/><path d="M42.62479702266679,102.76055724671491L38.83078814989077,98.59996783498264L42.03557035596021,104.67748304765136z" style="fill:rgb(242,130,183)"/><path d="M61.295635601962225,95.39129653080343L56.393437351793835,88.49500652730403L59.48220335435346,94.63204254795838z" style="fill:rgb(51,38,177)"/><path d="M39.42829034742873,96.67907892781373L43.62533625908881,100.8930499301231L40.43903227104151,94.80658906373097z" style="fill:rgb(233,112,197)"/><path d="M57.44301230085365,94.22972844524676L56.393437351793835,88.49500652730403L54.344920020080416,88.09777679968231z" style="fill:rgb(71,33,192)"/><path d="M42.03557035596021,104.67748304765136L38.670894461898605,100.49660554167328L41.88169030557753,106.57132410249746z" style="fill:rgb(246,149,167)"/><path d="M62.813449218260544,96.48019008813453L58.21413239560381,89.25022484666206L61.295635601962225,95.39129653080343z" style="fill:rgb(34,46,160)"/><path d="M38.83078814989077,98.59996783498264L42.62479702266679,102.76055724671491L39.42829034742873,96.67907892781373z" style="fill:rgb(242,130,183)"/><path d="M38.670894461898605,100.49660554167328L42.17102942886438,108.36978973548675L41.88169030557753,106.57132410249746z" style="fill:rgb(246,167,149)"/><path d="M56.393437351793835,88.49500652730403L61.295635601962225,95.39129653080343L58.21413239560381,89.25022484666206z" style="fill:rgb(51,38,177)"/><path d="M38.670894461898605,100.49660554167328L42.03557035596021,104.67748304765136L38.83078814989077,98.59996783498264z" style="fill:rgb(246,149,167)"/><path d="M63.97629182831246,97.85871863414496L59.73684784172183,90.33630149083848L62.813449218260544,96.48019008813453z" style="fill:rgb(21,57,142)"/><path d="M58.21413239560381,89.25022484666206L62.813449218260544,96.48019008813453L59.73684784172183,90.33630149083848z" style="fill:rgb(34,46,160)"/><path d="M38.956734234127936,102.29659255176213L42.89469521563938,110.0035337729404L42.17102942886438,108.36978973548675zM64.43452488631293,89.6798004732038L68.50909620141098,97.98903535509727L67.48537013715554,95.83718662276381z" style="fill:rgb(242,183,130)"/><path d="M42.17102942886438,108.36978973548675L38.670894461898605,100.49660554167328L38.956734234127936,102.29659255176213z" style="fill:rgb(246,167,149)"/><path d="M59.73684784172183,90.33630149083848L63.97629182831246,97.85871863414496L60.902030169470976,91.71335727664382zM40.879540556992076,113.91001272180713L36.13791010535199,105.96935306320167L39.37656941699681,112.03028015001395z" style="fill:rgb(21,57,142)"/><path d="M42.89469521563938,110.0035337729404L38.956734234127936,102.29659255176213L39.67957603318511,103.93051665505872z" style="fill:rgb(242,183,130)"/><path d="M65.45791128052221,91.83152298747851L68.95621391155755,100.37970239511756L68.50909620141098,97.98903535509727z" style="fill:rgb(246,167,149)"/><path d="M68.50909620141098,97.98903535509727L64.43452488631293,89.6798004732038L65.45791128052221,91.83152298747851z" style="fill:rgb(242,183,130)"/><path d="M42.490602161929516,115.12340047813814L37.64333675889657,107.84757623976374L40.879540556992076,113.91001272180713z" style="fill:rgb(34,46,160)"/><path d="M68.95621391155755,100.37970239511756L65.87078557569419,94.71133648644408L68.92732535205283,100.86634313989656z" style="fill:rgb(246,149,167)"/><path d="M36.13791010535199,105.96935306320167L40.879540556992076,113.91001272180713L37.64333675889657,107.84757623976374z" style="fill:rgb(21,57,142)"/><path d="M42.874381545328845,115.41245441907796L39.25928840287119,109.0583098239904L42.490602161929516,115.12340047813814z" style="fill:rgb(34,46,160)"/><path d="M68.95621391155755,100.37970239511756L65.45791128052221,91.83152298747851L65.9010957399356,94.22399504103277z" style="fill:rgb(246,167,149)"/><path d="M68.92732535205283,100.86634313989656L65.74299954786268,96.765842446983L68.80553033112618,102.91786722633196z" style="fill:rgb(246,149,167)"/><path d="M45.286399415762524,116.47658158605388L39.644238071039815,109.34673558349341L42.874381545328845,115.41245441907796z" style="fill:rgb(51,38,177)"/><path d="M65.87078557569419,94.71133648644408L68.95621391155755,100.37970239511756L65.9010957399356,94.22399504103277z" style="fill:rgb(246,149,167)"/><path d="M37.64333675889657,107.84757623976374L42.490602161929516,115.12340047813814L39.25928840287119,109.0583098239904z" style="fill:rgb(34,46,160)"/><path d="M65.74299954786268,96.765842446983L68.92732535205283,100.86634313989656L65.87078557569419,94.71133648644408z" style="fill:rgb(246,149,167)"/><path d="M37.116843258030705,67.43387552110345L38.13469441267557,76.44390311923752L41.01842825595878,75.0510948384144z" style="fill:rgb(162,50,222)"/><path d="M34.2106955440406,68.83827718288354L35.49317720199331,78.22369587083556L38.13469441267557,76.44390311923752z" style="fill:rgb(183,62,221)"/><path d="M68.80553033112618,102.91786722633196L64.98603787515441,99.35860167399653L68.05922781441369,105.50520376868647z" style="fill:rgb(242,130,183)"/><path d="M39.25928840287119,109.0583098239904L42.874381545328845,115.41245441907796L39.644238071039815,109.34673558349341z" style="fill:rgb(34,46,160)"/><path d="M40.15758312862923,66.4682577297967L41.01842825595878,75.0510948384144L44.037439262775244,74.09704910215633z" style="fill:rgb(139,40,220)"/><path d="M35.49317720199331,78.22369587083556L29.224605757270663,72.74078731294391L33.19224930465404,80.32480599017657z" style="fill:rgb(203,77,216)"/><path d="M68.05922781441369,105.50520376868647L64.73104736096444,99.84617668254576L67.80682807450128,105.99145052839191z" style="fill:rgb(233,112,197)"/><path d="M43.22015888540292,65.97799707703966L44.037439262775244,74.09704910215633L47.07973227154779,73.6179133480712z" style="fill:rgb(115,34,214)"/><path d="M44.81521135093313,110.98093526672679L45.286399415762524,116.47658158605388L48.023361817913035,117.05808981818639z" style="fill:rgb(71,33,192)"/><path d="M39.644238071039815,109.34673558349341L45.286399415762524,116.47658158605388L42.065724594289314,110.40590258791987z" style="fill:rgb(51,38,177)"/><path d="M64.98603787515441,99.35860167399653L68.80553033112618,102.91786722633196L65.74299954786268,96.765842446983z" style="fill:rgb(242,130,183)"/><path d="M67.80682807450128,105.99145052839191L63.656637224789165,101.90059783905484L66.7433491821161,108.04025396109988z" style="fill:rgb(233,112,197)"/><path d="M33.19224930465404,80.32480599017657L27.3310810893147,75.09501546194265L31.318376728415345,82.6697782000038z" style="fill:rgb(220,94,208)"/><path d="M46.190506058356505,65.98271434880822L47.07973227154779,73.6179133480712L50.031985951631704,73.63288624623254z" style="fill:rgb(92,32,204)"/><path d="M38.13469441267557,76.44390311923752L37.116843258030705,67.43387552110345L34.2106955440406,68.83827718288354z" style="fill:rgb(162,50,222)"/><path d="M47.785913000929774,111.04671235588849L48.023361817913035,117.05808981818639L50.9789577547896,117.13162973973853z" style="fill:rgb(92,32,204)"/><path d="M35.49317720199331,78.22369587083556L34.2106955440406,68.83827718288354L31.54689578960862,70.62926836251324z" style="fill:rgb(183,62,221)"/><path d="M41.01842825595878,75.0510948384144L40.15758312862923,66.4682577297967L37.116843258030705,67.43387552110345z" style="fill:rgb(139,40,220)"/><path d="M45.286399415762524,116.47658158605388L44.81521135093313,110.98093526672679L42.065724594289314,110.40590258791987z" style="fill:rgb(71,33,192)"/><path d="M64.73104736096444,99.84617668254576L68.05922781441369,105.50520376868647L64.98603787515441,99.35860167399653z" style="fill:rgb(233,112,197)"/><path d="M66.7433491821161,108.04025396109988L61.80462991329284,104.29120079770757L64.90720271200144,110.4226741912743z" style="fill:rgb(220,94,208)"/><path d="M29.224605757270663,72.74078731294391L35.49317720199331,78.22369587083556L31.54689578960862,70.62926836251324z" style="fill:rgb(203,77,216)"/><path d="M31.318376728415345,82.6697782000038L25.93861283775111,77.6048931837488L29.94311579883856,85.17186829887802z" style="fill:rgb(233,112,197)"/><path d="M44.037439262775244,74.09704910215633L43.22015888540292,65.97799707703966L40.15758312862923,66.4682577297967z" style="fill:rgb(115,34,214)"/><path d="M63.656637224789165,101.90059783905484L67.80682807450128,105.99145052839191L64.73104736096444,99.84617668254576z" style="fill:rgb(233,112,197)"/><path d="M50.86108073086765,110.59859462862396L50.9789577547896,117.13162973973853L54.03705469328422,116.69227386793273z" style="fill:rgb(115,34,214)"/><path d="M55.03886935118295,70.71697212424692L65.45791128052221,91.83152298747851L64.43452488631293,89.6798004732038z" style="fill:rgb(242,183,130)"/><path d="M64.90720271200144,110.4226741912743L59.94414230711027,106.02306675030346L63.06092571839138,112.14720939348322z" style="fill:rgb(203,77,216)"/><path d="M48.95712340057247,66.48422422342581L50.031985951631704,73.63288624623254L52.7833602491336,74.14337959403979z" style="fill:rgb(71,33,192)"/><path d="M27.3310810893147,75.09501546194265L33.19224930465404,80.32480599017657L29.224605757270663,72.74078731294391z" style="fill:rgb(220,94,208)"/><path d="M63.06092571839138,112.14720939348322L59.50153269481291,106.43507601584813L62.621698196778155,112.55747245843722z" style="fill:rgb(203,77,216)"/><path d="M48.023361817913035,117.05808981818639L47.785913000929774,111.04671235588849L44.81521135093313,110.98093526672679z" style="fill:rgb(92,32,204)"/><path d="M53.9189146649481,109.65289452991357L54.03705469328422,116.69227386793273L57.076544645886486,115.75599552828164z" style="fill:rgb(139,40,220)"/><path d="M59.50153269481291,106.43507601584813L59.97654375393931,114.35925301808857L62.621698196778155,112.55747245843722z" style="fill:rgb(183,62,221)"/><path d="M47.07973227154779,73.6179133480712L46.190506058356505,65.98271434880822L43.22015888540292,65.97799707703966z" style="fill:rgb(92,32,204)"/><path d="M56.837776554658404,108.24644712686077L57.076544645886486,115.75599552828164L59.97654375393931,114.35925301808857z" style="fill:rgb(162,50,222)"/><path d="M61.80462991329284,104.29120079770757L66.7433491821161,108.04025396109988L63.656637224789165,101.90059783905484z" style="fill:rgb(220,94,208)"/><path d="M29.94311579883856,85.17186829887802L25.101826590077465,80.17693307002038L29.120423946243278,87.7378879403631z" style="fill:rgb(242,130,183)"/><path d="M55.22935491916859,75.13267939701039L48.95712340057247,66.48422422342581L52.7833602491336,74.14337959403979z" style="fill:rgb(51,38,177)"/><path d="M37.64333675889657,107.84757623976374L26.163469265025395,87.3028574412162L36.13791010535199,105.96935306320167z" style="fill:rgb(21,57,142)"/><path d="M25.93861283775111,77.6048931837488L31.318376728415345,82.6697782000038L27.3310810893147,75.09501546194265z" style="fill:rgb(233,112,197)"/><path d="M50.9789577547896,117.13162973973853L50.86108073086765,110.59859462862396L47.785913000929774,111.04671235588849z" style="fill:rgb(115,34,214)"/><path d="M59.94414230711027,106.02306675030346L64.90720271200144,110.4226741912743L61.80462991329284,104.29120079770757z" style="fill:rgb(203,77,216)"/><path d="M50.031985951631704,73.63288624623254L48.95712340057247,66.48422422342581L46.190506058356505,65.98271434880822z" style="fill:rgb(71,33,192)"/><path d="M56.060638978034085,72.8671542521257L65.9010957399356,94.22399504103277L65.45791128052221,91.83152298747851z" style="fill:rgb(246,167,149)"/><path d="M59.50153269481291,106.43507601584813L63.06092571839138,112.14720939348322L59.94414230711027,106.02306675030346z" style="fill:rgb(203,77,216)"/><path d="M54.03705469328422,116.69227386793273L53.9189146649481,109.65289452991357L50.86108073086765,110.59859462862396z" style="fill:rgb(139,40,220)"/><path d="M59.97654375393931,114.35925301808857L59.50153269481291,106.43507601584813L56.837776554658404,108.24644712686077z" style="fill:rgb(183,62,221)"/><path d="M57.076544645886486,115.75599552828164L56.837776554658404,108.24644712686077L53.9189146649481,109.65289452991357z" style="fill:rgb(162,50,222)"/><path d="M25.101826590077465,80.17693307002038L29.94311579883856,85.17186829887802L25.93861283775111,77.6048931837488z" style="fill:rgb(242,130,183)"/><path d="M29.120423946243278,87.7378879403631L24.855424970327704,82.71440530757323L28.884440097538,90.27130455443971z" style="fill:rgb(246,149,167)"/><path d="M57.27563594550405,76.56614734386653L51.414928849299784,67.46618002252816L55.22935491916859,75.13267939701039zM39.644238071039815,109.34673558349341L27.675845126124074,89.17530943688897L37.64333675889657,107.84757623976374z" style="fill:rgb(34,46,160)"/><path d="M48.95712340057247,66.48422422342581L55.22935491916859,75.13267939701039L51.414928849299784,67.46618002252816z" style="fill:rgb(51,38,177)"/><path d="M24.855424970327704,82.71440530757323L29.247800949277593,92.67566337693404L28.884440097538,90.27130455443971z" style="fill:rgb(246,167,149)"/><path d="M24.855424970327704,82.71440530757323L29.120423946243278,87.7378879403631L25.101826590077465,80.17693307002038zM65.9010957399356,94.22399504103277L56.309696629633024,77.81619171063632L65.74299954786268,96.765842446983z" style="fill:rgb(246,149,167)"/><path d="M58.84169810538463,78.39205328430542L53.46912643786257,68.89425775595845L57.27563594550405,76.56614734386653z" style="fill:rgb(21,57,142)"/><path d="M42.065724594289314,110.40590258791987L29.694843662479883,90.66328779469778L39.644238071039815,109.34673558349341z" style="fill:rgb(51,38,177)"/><path d="M51.414928849299784,67.46618002252816L57.27563594550405,76.56614734386653L53.46912643786257,68.89425775595845z" style="fill:rgb(34,46,160)"/><path d="M25.212499899237013,85.12068791130271L30.20063146342451,94.8581331053473L29.247800949277593,92.67566337693404z" style="fill:rgb(242,183,130)"/><path d="M65.74299954786268,96.765842446983L55.51942937589516,80.42470817445253L64.98603787515441,99.35860167399653z" style="fill:rgb(242,130,183)"/><path d="M65.45791128052221,91.83152298747851L55.03886935118295,70.71697212424692L56.060638978034085,72.8671542521257zM58.642165006912876,68.64726459508138L63.70486899079564,79.02111083362392L62.415800154207346,76.3372683950291z" style="fill:rgb(242,183,130)"/><path d="M29.247800949277593,92.67566337693404L24.855424970327704,82.71440530757323L25.212499899237013,85.12068791130271z" style="fill:rgb(246,167,149)"/><path d="M27.3310810893147,75.09501546194265L29.694843662479883,90.66328779469778L29.224605757270663,72.74078731294391zM29.224605757270663,72.74078731294391L32.14497462934156,91.70619910995339L31.54689578960862,70.62926836251324z" style="fill:rgb(83,212,212)"/><path d="M34.93260632320279,92.26043941856523L42.065724594289314,110.40590258791987L44.81521135093313,110.98093526672679z" style="fill:rgb(71,33,192)"/><path d="M25.93861283775111,77.6048931837488L27.675845126124074,89.17530943688897L27.3310810893147,75.09501546194265zM31.54689578960862,70.62926836251324L34.93260632320279,92.26043941856523L34.2106955440406,68.83827718288354zM34.2106955440406,68.83827718288354L37.94947320287179,92.30162617452754L37.116843258030705,67.43387552110345zM25.101826590077465,80.17693307002038L26.163469265025395,87.3028574412162L25.93861283775111,77.6048931837488z" style="fill:rgb(83,212,212)"/><path d="M26.163469265025395,87.3028574412162L37.64333675889657,107.84757623976374L27.675845126124074,89.17530943688897z" style="fill:rgb(21,57,142)"/><path d="M64.98603787515441,99.35860167399653L54.14798718187044,82.98730385052029L63.656637224789165,101.90059783905484z" style="fill:rgb(233,112,197)"/><path d="M53.46912643786257,68.89425775595845L58.84169810538463,78.39205328430542L55.03886935118295,70.71697212424692z" style="fill:rgb(21,57,142)"/><path d="M37.116843258030705,67.43387552110345L41.076977163587095,91.82603383337634L40.15758312862923,66.4682577297967zM25.212499899237013,85.12068791130271L25.101826590077465,80.17693307002038L24.855424970327704,82.71440530757323z" style="fill:rgb(83,212,212)"/><path d="M65.9010957399356,94.22399504103277L56.060638978034085,72.8671542521257L56.491166341813525,75.2640589582874z" style="fill:rgb(246,167,149)"/><path d="M28.49265388048118,99.2713339213117L22.54790296799192,89.37962224777674L26.614454434551497,96.9198682016215z" style="fill:rgb(21,57,142)"/><path d="M37.94947320287179,92.30162617452754L44.81521135093313,110.98093526672679L47.785913000929774,111.04671235588849z" style="fill:rgb(92,32,204)"/><path d="M40.15758312862923,66.4682577297967L44.19118412927591,90.85104068329234L43.22015888540292,65.97799707703966z" style="fill:rgb(83,212,212)"/><path d="M63.656637224789165,101.90059783905484L52.24679675723928,85.40249813976989L61.80462991329284,104.29120079770757z" style="fill:rgb(220,94,208)"/><path d="M30.20063146342451,94.8581331053473L25.212499899237013,85.12068791130271L26.163469265025395,87.3028574412162z" style="fill:rgb(242,183,130)"/><path d="M59.930458627662986,71.32998232720541L64.14259650699785,81.37661375700053L63.70486899079564,79.02111083362392z" style="fill:rgb(246,167,149)"/><path d="M43.22015888540292,65.97799707703966L47.16813567189025,89.41465444535261L46.190506058356505,65.98271434880822zM25.101826590077465,80.17693307002038L25.212499899237013,85.12068791130271L26.163469265025395,87.3028574412162z" style="fill:rgb(83,212,212)"/><path d="M41.076977163587095,91.82603383337634L47.785913000929774,111.04671235588849L50.86108073086765,110.59859462862396z" style="fill:rgb(115,34,214)"/><path d="M27.675845126124074,89.17530943688897L39.644238071039815,109.34673558349341L29.694843662479883,90.66328779469778z" style="fill:rgb(34,46,160)"/><path d="M56.309696629633024,77.81619171063632L65.9010957399356,94.22399504103277L56.491166341813525,75.2640589582874z" style="fill:rgb(246,149,167)"/><path d="M61.80462991329284,104.29120079770757L49.889310355278106,87.57392597331926L59.50153269481291,106.43507601584813z" style="fill:rgb(203,77,216)"/><path d="M63.70486899079564,79.02111083362392L58.642165006912876,68.64726459508138L59.930458627662986,71.32998232720541z" style="fill:rgb(242,183,130)"/><path d="M44.19118412927591,90.85104068329234L50.86108073086765,110.59859462862396L53.9189146649481,109.65289452991357z" style="fill:rgb(139,40,220)"/><path d="M49.889310355278106,87.57392597331926L56.837776554658404,108.24644712686077L59.50153269481291,106.43507601584813z" style="fill:rgb(183,62,221)"/><path d="M46.190506058356505,65.98271434880822L49.889310355278106,87.57392597331926L48.95712340057247,66.48422422342581zM25.93861283775111,77.6048931837488L26.163469265025395,87.3028574412162L27.675845126124074,89.17530943688897z" style="fill:rgb(83,212,212)"/><path d="M47.16813567189025,89.41465444535261L53.9189146649481,109.65289452991357L56.837776554658404,108.24644712686077z" style="fill:rgb(162,50,222)"/><path d="M60.36317518753581,73.68699551223737L64.26100939279287,82.01381471702868L64.14259650699785,81.37661375700053z" style="fill:rgb(246,167,149)"/><path d="M31.001858676464153,101.14661983606013L24.429328910609893,91.72801539971213L28.49265388048118,99.2713339213117z" style="fill:rgb(34,46,160)"/><path d="M48.95712340057247,66.48422422342581L52.24679675723928,85.40249813976989L51.414928849299784,67.46618002252816zM27.3310810893147,75.09501546194265L27.675845126124074,89.17530943688897L29.694843662479883,90.66328779469778z" style="fill:rgb(83,212,212)"/><path d="M29.694843662479883,90.66328779469778L42.065724594289314,110.40590258791987L32.14497462934156,91.70619910995339z" style="fill:rgb(51,38,177)"/><path d="M55.51942937589516,80.42470817445253L65.74299954786268,96.765842446983L56.309696629633024,77.81619171063632z" style="fill:rgb(242,130,183)"/><path d="M22.54790296799192,89.37962224777674L28.49265388048118,99.2713339213117L24.429328910609893,91.72801539971213z" style="fill:rgb(21,57,142)"/><path d="M51.414928849299784,67.46618002252816L54.14798718187044,82.98730385052029L53.46912643786257,68.89425775595845zM29.224605757270663,72.74078731294391L29.694843662479883,90.66328779469778L32.14497462934156,91.70619910995339z" style="fill:rgb(83,212,212)"/><path d="M64.14259650699785,81.37661375700053L59.930458627662986,71.32998232720541L60.36317518753581,73.68699551223737z" style="fill:rgb(246,167,149)"/><path d="M42.065724594289314,110.40590258791987L34.93260632320279,92.26043941856523L32.14497462934156,91.70619910995339z" style="fill:rgb(71,33,192)"/><path d="M64.26100939279287,82.01381471702868L60.26377441989543,77.51708743502373L64.05635274088692,85.20133291132389z" style="fill:rgb(246,149,167)"/><path d="M53.46912643786257,68.89425775595845L55.51942937589516,80.42470817445253L55.03886935118295,70.71697212424692z" style="fill:rgb(83,212,212)"/><path d="M31.647910999823594,101.4268708237028L26.947449200140927,93.59750846715573L31.001858676464153,101.14661983606013z" style="fill:rgb(51,38,177)"/><path d="M31.54689578960862,70.62926836251324L32.14497462934156,91.70619910995339L34.93260632320279,92.26043941856523z" style="fill:rgb(83,212,212)"/><path d="M54.14798718187044,82.98730385052029L64.98603787515441,99.35860167399653L55.51942937589516,80.42470817445253z" style="fill:rgb(233,112,197)"/><path d="M64.26100939279287,82.01381471702868L60.36317518753581,73.68699551223737L60.480235193753856,74.32461950908493z" style="fill:rgb(246,167,149)"/><path d="M34.04889812101035,102.46838218636027L27.596528388734647,93.87598451724222L31.647910999823594,101.4268708237028z" style="fill:rgb(51,38,177)"/><path d="M34.2106955440406,68.83827718288354L34.93260632320279,92.26043941856523L37.94947320287179,92.30162617452754z" style="fill:rgb(83,212,212)"/><path d="M44.81521135093313,110.98093526672679L37.94947320287179,92.30162617452754L34.93260632320279,92.26043941856523z" style="fill:rgb(92,32,204)"/><path d="M55.03886935118295,70.71697212424692L55.51942937589516,80.42470817445253L56.060638978034085,72.8671542521257z" style="fill:rgb(83,212,212)"/><path d="M24.429328910609893,91.72801539971213L31.001858676464153,101.14661983606013L26.947449200140927,93.59750846715573z" style="fill:rgb(34,46,160)"/><path d="M60.26377441989543,77.51708743502373L64.26100939279287,82.01381471702868L60.480235193753856,74.32461950908493z" style="fill:rgb(246,149,167)"/><path d="M52.24679675723928,85.40249813976989L63.656637224789165,101.90059783905484L54.14798718187044,82.98730385052029z" style="fill:rgb(220,94,208)"/><path d="M37.116843258030705,67.43387552110345L37.94947320287179,92.30162617452754L41.076977163587095,91.82603383337634z" style="fill:rgb(83,212,212)"/><path d="M64.05635274088692,85.20133291132389L59.283469190396566,80.78351966065874L63.092918589950905,88.45997899257301z" style="fill:rgb(242,130,183)"/><path d="M56.060638978034085,72.8671542521257L56.309696629633024,77.81619171063632L56.491166341813525,75.2640589582874zM40.15758312862923,66.4682577297967L41.076977163587095,91.82603383337634L44.19118412927591,90.85104068329234z" style="fill:rgb(83,212,212)"/><path d="M47.785913000929774,111.04671235588849L41.076977163587095,91.82603383337634L37.94947320287179,92.30162617452754z" style="fill:rgb(115,34,214)"/><path d="M26.947449200140927,93.59750846715573L31.647910999823594,101.4268708237028L27.596528388734647,93.87598451724222z" style="fill:rgb(51,38,177)"/><path d="M49.889310355278106,87.57392597331926L61.80462991329284,104.29120079770757L52.24679675723928,85.40249813976989z" style="fill:rgb(203,77,216)"/><path d="M43.22015888540292,65.97799707703966L44.19118412927591,90.85104068329234L47.16813567189025,89.41465444535261zM53.46912643786257,68.89425775595845L54.14798718187044,82.98730385052029L55.51942937589516,80.42470817445253zM46.190506058356505,65.98271434880822L47.16813567189025,89.41465444535261L49.889310355278106,87.57392597331926z" style="fill:rgb(83,212,212)"/><path d="M50.86108073086765,110.59859462862396L44.19118412927591,90.85104068329234L41.076977163587095,91.82603383337634z" style="fill:rgb(139,40,220)"/><path d="M51.414928849299784,67.46618002252816L52.24679675723928,85.40249813976989L54.14798718187044,82.98730385052029zM48.95712340057247,66.48422422342581L49.889310355278106,87.57392597331926L52.24679675723928,85.40249813976989zM56.060638978034085,72.8671542521257L55.51942937589516,80.42470817445253L56.309696629633024,77.81619171063632z" style="fill:rgb(83,212,212)"/><path d="M33.49663039573131,95.6122361877131L34.04889812101035,102.46838218636027L37.51750144907598,103.18034108823475z" style="fill:rgb(71,33,192)"/><path d="M56.837776554658404,108.24644712686077L49.889310355278106,87.57392597331926L47.16813567189025,89.41465444535261z" style="fill:rgb(183,62,221)"/><path d="M53.9189146649481,109.65289452991357L47.16813567189025,89.41465444535261L44.19118412927591,90.85104068329234z" style="fill:rgb(162,50,222)"/><path d="M59.283469190396566,80.78351966065874L64.05635274088692,85.20133291132389L60.26377441989543,77.51708743502373z" style="fill:rgb(242,130,183)"/><path d="M27.596528388734647,93.87598451724222L34.04889812101035,102.46838218636027L30.008812747781793,94.91091991971795z" style="fill:rgb(51,38,177)"/><path d="M63.092918589950905,88.45997899257301L57.57265930459834,83.99519484134454L61.40344991144138,91.66134523411277z" style="fill:rgb(233,112,197)"/><path d="M37.275101488664674,95.66967578566307L37.51750144907598,103.18034108823475L41.27260829495241,103.25034621866176z" style="fill:rgb(92,32,204)"/><path d="M34.04889812101035,102.46838218636027L33.49663039573131,95.6122361877131L30.008812747781793,94.91091991971795z" style="fill:rgb(71,33,192)"/><path d="M61.40344991144138,91.66134523411277L55.70078064178388,86.37973708623731L59.551256695643076,94.03613225341863z" style="fill:rgb(220,94,208)"/><path d="M57.57265930459834,83.99519484134454L63.092918589950905,88.45997899257301L59.283469190396566,80.78351966065874z" style="fill:rgb(233,112,197)"/><path d="M59.551256695643076,94.03613225341863L55.1950552474997,87.02397307128098L59.05085090852169,94.67772460753348z" style="fill:rgb(220,94,208)"/><path d="M41.19486991869777,95.07763399587935L41.27260829495241,103.25034621866176L45.16581640814582,102.67232682030316z" style="fill:rgb(115,34,214)"/><path d="M59.05085090852169,94.67772460753348L52.242624531183054,89.74790570798541L56.12610177653455,97.38769903437007z" style="fill:rgb(203,77,216)"/><path d="M37.51750144907598,103.18034108823475L37.275101488664674,95.66967578566307L33.49663039573131,95.6122361877131z" style="fill:rgb(92,32,204)"/><path d="M52.242624531183054,89.74790570798541L55.4080145212744,97.87486563353437L56.12610177653455,97.38769903437007z" style="fill:rgb(183,62,221)"/><path d="M45.09941913772003,93.85744603972303L45.16581640814582,102.67232682030316L49.041695774554526,101.46707549651225z" style="fill:rgb(139,40,220)"/><path d="M51.51832797080887,90.23823940516846L52.74468631887209,99.68170735722111L55.4080145212744,97.87486563353437z" style="fill:rgb(183,62,221)"/><path d="M48.83197748153504,92.05683241992382L49.041695774554526,101.46707549651225L52.74468631887209,99.68170735722111z" style="fill:rgb(162,50,222)"/><path d="M55.70078064178388,86.37973708623731L61.40344991144138,91.66134523411277L57.57265930459834,83.99519484134454zM55.1950552474997,87.02397307128098L59.551256695643076,94.03613225341863L55.70078064178388,86.37973708623731z" style="fill:rgb(220,94,208)"/><path d="M41.27260829495241,103.25034621866176L41.19486991869777,95.07763399587935L37.275101488664674,95.66967578566307z" style="fill:rgb(115,34,214)"/><path d="M52.242624531183054,89.74790570798541L59.05085090852169,94.67772460753348L55.1950552474997,87.02397307128098z" style="fill:rgb(203,77,216)"/><path d="M45.16581640814582,102.67232682030316L45.09941913772003,93.85744603972303L41.19486991869777,95.07763399587935z" style="fill:rgb(139,40,220)"/><path d="M55.4080145212744,97.87486563353437L52.242624531183054,89.74790570798541L51.51832797080887,90.23823940516846zM52.74468631887209,99.68170735722111L51.51832797080887,90.23823940516846L48.83197748153504,92.05683241992382z" style="fill:rgb(183,62,221)"/><path d="M49.041695774554526,101.46707549651225L48.83197748153504,92.05683241992382L45.09941913772003,93.85744603972303z" style="fill:rgb(162,50,222)"/><path d="M-26.519897407602286,-104.89795273903233L59.930458627662986,71.32998232720541L58.642165006912876,68.64726459508138z" style="fill:rgb(242,183,130)"/><path d="M24.429328910609893,91.72801539971213L-69.25687942148517,-80.8458705371579L22.54790296799192,89.37962224777674z" style="fill:rgb(21,57,142)"/><path d="M-25.295693214544535,-102.33555818622804L60.480235193753856,74.32461950908493L59.930458627662986,71.32998232720541z" style="fill:rgb(246,167,149)"/><path d="M26.947449200140927,93.59750846715573L-67.35237184555969,-78.65921139525108L24.429328910609893,91.72801539971213z" style="fill:rgb(34,46,160)"/><path d="M60.480235193753856,74.32461950908493L-25.461728477188238,-96.17360912037512L60.26377441989543,77.51708743502373z" style="fill:rgb(246,149,167)"/><path d="M30.008812747781793,94.91091991971795L-64.68035143696935,-77.0088911266599L26.947449200140927,93.59750846715573z" style="fill:rgb(51,38,177)"/><path d="M60.26377441989543,77.51708743502373L-26.862318101179294,-92.80964533393197L59.283469190396566,80.78351966065874z" style="fill:rgb(242,130,183)"/><path d="M-57.45331630611336,-75.57425969095979L30.008812747781793,94.91091991971795L33.49663039573131,95.6122361877131z" style="fill:rgb(71,33,192)"/><path d="M59.283469190396566,80.78351966065874L-29.088804079687122,-89.43102590460573L57.57265930459834,83.99519484134454z" style="fill:rgb(233,112,197)"/><path d="M-53.176058051508804,-75.85726974422137L33.49663039573131,95.6122361877131L37.275101488664674,95.66967578566307z" style="fill:rgb(92,32,204)"/><path d="M57.57265930459834,83.99519484134454L-32.057875390282724,-86.17295861594711L55.1950552474997,87.02397307128098z" style="fill:rgb(220,94,208)"/><path d="M-48.676208603404916,-76.80675028052308L37.275101488664674,95.66967578566307L41.19486991869777,95.07763399587935z" style="fill:rgb(115,34,214)"/><path d="M55.1950552474997,87.02397307128098L-35.654058364565955,-83.16728271603853L52.242624531183054,89.74790570798541z" style="fill:rgb(203,77,216)"/><path d="M-35.654058364565955,-83.16728271603853L48.83197748153504,92.05683241992382L52.242624531183054,89.74790570798541z" style="fill:rgb(183,62,221)"/><path d="M-44.13443099231834,-78.38725533865612L41.19486991869777,95.07763399587935L45.09941913772003,93.85744603972303z" style="fill:rgb(139,40,220)"/><path d="M-39.734344014669375,-80.53635504305521L45.09941913772003,93.85744603972303L48.83197748153504,92.05683241992382z" style="fill:rgb(162,50,222)"/><path d="M59.930458627662986,71.32998232720541L-26.519897407602286,-104.89795273903233L-25.295693214544535,-102.33555818622804z" style="fill:rgb(242,183,130)"/><path d="M-69.25687942148517,-80.8458705371579L24.429328910609893,91.72801539971213L-67.35237184555969,-78.65921139525108z" style="fill:rgb(21,57,142)"/><path d="M60.480235193753856,74.32461950908493L-25.295693214544535,-102.33555818622804L-24.935383526850178,-99.39035496398938z" style="fill:rgb(246,167,149)"/><path d="M-67.35237184555969,-78.65921139525108L26.947449200140927,93.59750846715573L-64.68035143696935,-77.0088911266599z" style="fill:rgb(34,46,160)"/><path d="M-25.461728477188238,-96.17360912037512L60.480235193753856,74.32461950908493L-24.935383526850178,-99.39035496398938z" style="fill:rgb(246,149,167)"/><path d="M-64.68035143696935,-77.0088911266599L30.008812747781793,94.91091991971795L-61.338453663132825,-75.96499142619747z" style="fill:rgb(51,38,177)"/><path d="M-26.862318101179294,-92.80964533393197L60.26377441989543,77.51708743502373L-25.461728477188238,-96.17360912037512z" style="fill:rgb(242,130,183)"/><path d="M30.008812747781793,94.91091991971795L-57.45331630611336,-75.57425969095979L-61.338453663132825,-75.96499142619747z" style="fill:rgb(71,33,192)"/><path d="M-29.088804079687122,-89.43102590460573L59.283469190396566,80.78351966065874L-26.862318101179294,-92.80964533393197z" style="fill:rgb(233,112,197)"/><path d="M33.49663039573131,95.6122361877131L-53.176058051508804,-75.85726974422137L-57.45331630611336,-75.57425969095979z" style="fill:rgb(92,32,204)"/><path d="M-32.057875390282724,-86.17295861594711L57.57265930459834,83.99519484134454L-29.088804079687122,-89.43102590460573z" style="fill:rgb(220,94,208)"/><path d="M37.275101488664674,95.66967578566307L-48.676208603404916,-76.80675028052308L-53.176058051508804,-75.85726974422137z" style="fill:rgb(115,34,214)"/><path d="M-35.654058364565955,-83.16728271603853L55.1950552474997,87.02397307128098L-32.057875390282724,-86.17295861594711z" style="fill:rgb(203,77,216)"/><path d="M41.19486991869777,95.07763399587935L-44.13443099231834,-78.38725533865612L-48.676208603404916,-76.80675028052308z" style="fill:rgb(139,40,220)"/><path d="M48.83197748153504,92.05683241992382L-35.654058364565955,-83.16728271603853L-39.734344014669375,-80.53635504305521z" style="fill:rgb(183,62,221)"/><path d="M45.09941913772003,93.85744603972303L-39.734344014669375,-80.53635504305521L-44.13443099231834,-78.38725533865612z" style="fill:rgb(162,50,222)"/><path d="M-66.12178524802745,-96.2441494115008L-67.35237184555969,-78.65921139525108L-63.178939178596735,-99.38853576389182zM-59.66618936784324,-102.27782852353721L-61.338453663132825,-75.96499142619747L-55.71383706158659,-104.80740304552837zM-69.87464575676226,-89.65464639970324L-70.32817040923499,-83.47913750399115L-68.38323833599384,-92.95920939087523zM-63.178939178596735,-99.38853576389182L-61.338453663132825,-75.96499142619747L-59.66618936784324,-102.27782852353721zM-68.38323833599384,-92.95920939087523L-67.35237184555969,-78.65921139525108L-66.12178524802745,-96.2441494115008zM-55.71383706158659,-104.80740304552837L-53.176058051508804,-75.85726974422137L-51.46671023787514,-106.88559629473215zM-70.32817040923499,-83.47913750399115L-69.87464575676226,-89.65464639970324L-70.53383479085599,-86.45398938523633zM-51.46671023787514,-106.88559629473215L-48.676208603404916,-76.80675028052308L-47.07961165152121,-108.43645949466196zM-47.07961165152121,-108.43645949466196L-44.13443099231834,-78.38725533865612L-42.71261832433559,-109.40206366741583zM-68.38323833599384,-92.95920939087523L-70.32817040923499,-83.47913750399115L-69.25687942148517,-80.8458705371579zM-42.71261832433559,-109.40206366741583L-39.734344014669375,-80.53635504305521L-38.52615033895612,-109.74451550443699zM-38.52615033895612,-109.74451550443699L-35.654058364565955,-83.16728271603853L-34.67593202262647,-109.44747635078792zM-68.38323833599384,-92.95920939087523L-69.25687942148517,-80.8458705371579L-67.35237184555969,-78.65921139525108zM-63.178939178596735,-99.38853576389182L-67.35237184555969,-78.65921139525108L-64.68035143696935,-77.0088911266599zM-34.67593202262647,-109.44747635078792L-32.057875390282724,-86.17295861594711L-31.307768149764723,-108.51724078523195zM-63.178939178596735,-99.38853576389182L-64.68035143696935,-77.0088911266599L-61.338453663132825,-75.96499142619747zM-31.307768149764723,-108.51724078523195L-32.057875390282724,-86.17295861594711L-28.55230979644021,-106.98327457460371zM-55.71383706158659,-104.80740304552837L-61.338453663132825,-75.96499142619747L-57.45331630611336,-75.57425969095979zM-28.55230979644021,-106.98327457460371L-29.088804079687122,-89.43102590460573L-26.519897407602286,-104.89795273903233zM-26.519897407602286,-104.89795273903233L-25.461728477188238,-96.17360912037512L-25.295693214544535,-102.33555818622804zM-55.71383706158659,-104.80740304552837L-57.45331630611336,-75.57425969095979L-53.176058051508804,-75.85726974422137zM-51.46671023787514,-106.88559629473215L-53.176058051508804,-75.85726974422137L-48.676208603404916,-76.80675028052308zM-25.295693214544535,-102.33555818622804L-25.461728477188238,-96.17360912037512L-24.935383526850178,-99.39035496398938zM-47.07961165152121,-108.43645949466196L-48.676208603404916,-76.80675028052308L-44.13443099231834,-78.38725533865612zM-26.519897407602286,-104.89795273903233L-26.862318101179294,-92.80964533393197L-25.461728477188238,-96.17360912037512zM-42.71261832433559,-109.40206366741583L-44.13443099231834,-78.38725533865612L-39.734344014669375,-80.53635504305521zM-38.52615033895612,-109.74451550443699L-39.734344014669375,-80.53635504305521L-35.654058364565955,-83.16728271603853zM-34.67593202262647,-109.44747635078792L-35.654058364565955,-83.16728271603853L-32.057875390282724,-86.17295861594711zM-26.519897407602286,-104.89795273903233L-29.088804079687122,-89.43102590460573L-26.862318101179294,-92.80964533393197zM-28.55230979644021,-106.98327457460371L-32.057875390282724,-86.17295861594711L-29.088804079687122,-89.43102590460573z" style="fill:rgb(83,212,212)"/><path d="M-49.10167664181965,-139.4652000130519L-29.817938879414495,-100.44196421552626L-30.78503925418923,-102.49755779442776z" style="fill:rgb(242,183,130)"/><path d="M-63.4406623105018,-81.51476419927444L-84.43177112739001,-119.6686612101762L-64.97460897140148,-83.2558946539176z" style="fill:rgb(21,57,142)"/><path d="M-48.15555955728238,-137.44859959346732L-29.542239398644053,-98.08338428133592L-29.817938879414495,-100.44196421552626z" style="fill:rgb(246,167,149)"/><path d="M-61.29619678839462,-80.2040078411131L-82.90302422573765,-117.97392282677697L-63.4406623105018,-81.51476419927444z" style="fill:rgb(34,46,160)"/><path d="M-29.542239398644053,-98.08338428133592L-48.41619916643248,-132.55754023855798L-29.97423470720215,-95.51125666909302z" style="fill:rgb(246,149,167)"/><path d="M-58.6204264377195,-79.37825972680685L-80.74109258873493,-116.71855762034278L-61.29619678839462,-80.2040078411131z" style="fill:rgb(51,38,177)"/><path d="M-29.97423470720215,-95.51125666909302L-49.62420332727924,-129.87007004820546L-31.102284579038816,-92.82492000112761z" style="fill:rgb(242,130,183)"/><path d="M-74.85963845914081,-115.71766070875886L-58.6204264377195,-79.37825972680685L-55.515070080564385,-79.073482140308z" style="fill:rgb(71,33,192)"/><path d="M-31.102284579038816,-92.82492000112761L-51.503266422111665,-127.15959360378412L-32.88650994152664,-90.12970824485362z" style="fill:rgb(233,112,197)"/><path d="M-29.817938879414495,-100.44196421552626L-49.10167664181965,-139.4652000130519L-48.15555955728238,-137.44859959346732z" style="fill:rgb(242,183,130)"/><path d="M-71.3660397230004,-116.01853274488693L-55.515070080564385,-79.073482140308L-52.10065492831062,-79.30491124670468z" style="fill:rgb(92,32,204)"/><path d="M-32.88650994152664,-90.12970824485362L-53.982592158038536,-124.53373812574931L-35.25974797649104,-87.53264057411546z" style="fill:rgb(220,94,208)"/><path d="M-67.6824913992992,-116.84855804834285L-52.10065492831062,-79.30491124670468L-48.51169218055888,-80.06593164896519z" style="fill:rgb(115,34,214)"/><path d="M-84.43177112739001,-119.6686612101762L-63.4406623105018,-81.51476419927444L-82.90302422573765,-117.97392282677697z" style="fill:rgb(21,57,142)"/><path d="M-35.25974797649104,-87.53264057411546L-56.96587115021322,-122.09776077520513L-38.12989995331389,-85.13773703182775z" style="fill:rgb(203,77,216)"/><path d="M-63.955740047189195,-118.17640369393281L-48.51169218055888,-80.06593164896519L-44.89103628452384,-81.32795256303736z" style="fill:rgb(139,40,220)"/><path d="M-56.96587115021322,-122.09776077520513L-41.38359685385875,-83.04138935657758L-38.12989995331389,-85.13773703182775z" style="fill:rgb(183,62,221)"/><path d="M-60.33512112078867,-119.94979459701592L-44.89103628452384,-81.32795256303736L-41.38359685385875,-83.04138935657758z" style="fill:rgb(162,50,222)"/><path d="M-29.542239398644053,-98.08338428133592L-48.15555955728238,-137.44859959346732L-47.92206662650396,-135.11662595021988z" style="fill:rgb(246,167,149)"/><path d="M-84.81885578278742,-126.63776305923702L-85.27370153600205,-121.7338197522166L-83.55039365770328,-129.28759409036243zM-81.64904818182549,-131.9372123019035L-80.74109258873493,-116.71855762034278L-79.18900677708297,-134.48826066195574zM-79.18900677708297,-134.48826066195574L-78.02560303820734,-115.95524047731335L-76.26366105139068,-136.84685494426222zM-83.55039365770328,-129.28759409036243L-82.90302422573765,-117.97392282677697L-81.64904818182549,-131.9372123019035zM-76.26366105139068,-136.84685494426222L-74.85963845914081,-115.71766070875886L-72.98216057537752,-138.9266457186395zM-72.98216057537752,-138.9266457186395L-71.3660397230004,-116.01853274488693L-69.46574942970754,-140.65146840002404z" style="fill:rgb(83,212,212)"/><path d="M-82.90302422573765,-117.97392282677697L-61.29619678839462,-80.2040078411131L-80.74109258873493,-116.71855762034278z" style="fill:rgb(34,46,160)"/><path d="M-48.41619916643248,-132.55754023855798L-29.542239398644053,-98.08338428133592L-47.92206662650396,-135.11662595021988z" style="fill:rgb(246,149,167)"/><path d="M-85.27370153600205,-121.7338197522166L-84.81885578278742,-126.63776305923702L-85.40241421563117,-124.08736919355759zM-69.46574942970754,-140.65146840002404L-67.6824913992992,-116.84855804834285L-65.84379114687967,-141.95774105500237zM-65.84379114687967,-141.95774105500237L-67.6824913992992,-116.84855804834285L-62.2496766380942,-142.7964716400593zM-83.55039365770328,-129.28759409036243L-85.27370153600205,-121.7338197522166L-84.43177112739001,-119.6686612101762zM-62.2496766380942,-142.7964716400593L-60.33512112078867,-119.94979459701592L-58.81652263180653,-143.13500815367834z" style="fill:rgb(83,212,212)"/><path d="M-80.74109258873493,-116.71855762034278L-58.6204264377195,-79.37825972680685L-78.02560303820734,-115.95524047731335z" style="fill:rgb(51,38,177)"/><path d="M-49.62420332727924,-129.87007004820546L-29.97423470720215,-95.51125666909302L-48.41619916643248,-132.55754023855798z" style="fill:rgb(242,130,183)"/><path d="M-58.81652263180653,-143.13500815367834L-56.96587115021322,-122.09776077520513L-55.67281977959907,-142.95829837198735zM-83.55039365770328,-129.28759409036243L-84.43177112739001,-119.6686612101762L-82.90302422573765,-117.97392282677697z" style="fill:rgb(83,212,212)"/><path d="M-58.6204264377195,-79.37825972680685L-74.85963845914081,-115.71766070875886L-78.02560303820734,-115.95524047731335z" style="fill:rgb(71,33,192)"/><path d="M-55.67281977959907,-142.95829837198735L-53.982592158038536,-124.53373812574931L-52.93801859777922,-142.26979502424712zM-81.64904818182549,-131.9372123019035L-82.90302422573765,-117.97392282677697L-80.74109258873493,-116.71855762034278z" style="fill:rgb(83,212,212)"/><path d="M-51.503266422111665,-127.15959360378412L-31.102284579038816,-92.82492000112761L-49.62420332727924,-129.87007004820546z" style="fill:rgb(233,112,197)"/><path d="M-52.93801859777922,-142.26979502424712L-51.503266422111665,-127.15959360378412L-50.71815949199731,-141.09179842530452zM-79.18900677708297,-134.48826066195574L-80.74109258873493,-116.71855762034278L-78.02560303820734,-115.95524047731335z" style="fill:rgb(83,212,212)"/><path d="M-55.515070080564385,-79.073482140308L-71.3660397230004,-116.01853274488693L-74.85963845914081,-115.71766070875886z" style="fill:rgb(92,32,204)"/><path d="M-53.982592158038536,-124.53373812574931L-32.88650994152664,-90.12970824485362L-51.503266422111665,-127.15959360378412z" style="fill:rgb(220,94,208)"/><path d="M-50.71815949199731,-141.09179842530452L-49.62420332727924,-129.87007004820546L-49.10167664181965,-139.4652000130519zM-76.26366105139068,-136.84685494426222L-78.02560303820734,-115.95524047731335L-74.85963845914081,-115.71766070875886z" style="fill:rgb(83,212,212)"/><path d="M-52.10065492831062,-79.30491124670468L-67.6824913992992,-116.84855804834285L-71.3660397230004,-116.01853274488693z" style="fill:rgb(115,34,214)"/><path d="M-56.96587115021322,-122.09776077520513L-35.25974797649104,-87.53264057411546L-53.982592158038536,-124.53373812574931z" style="fill:rgb(203,77,216)"/><path d="M-72.98216057537752,-138.9266457186395L-74.85963845914081,-115.71766070875886L-71.3660397230004,-116.01853274488693z" style="fill:rgb(83,212,212)"/><path d="M-48.51169218055888,-80.06593164896519L-63.955740047189195,-118.17640369393281L-67.6824913992992,-116.84855804834285z" style="fill:rgb(139,40,220)"/><path d="M-49.10167664181965,-139.4652000130519L-49.62420332727924,-129.87007004820546L-48.15555955728238,-137.44859959346732z" style="fill:rgb(83,212,212)"/><path d="M-41.38359685385875,-83.04138935657758L-56.96587115021322,-122.09776077520513L-60.33512112078867,-119.94979459701592z" style="fill:rgb(183,62,221)"/><path d="M-44.89103628452384,-81.32795256303736L-60.33512112078867,-119.94979459701592L-63.955740047189195,-118.17640369393281z" style="fill:rgb(162,50,222)"/><path d="M-69.46574942970754,-140.65146840002404L-71.3660397230004,-116.01853274488693L-67.6824913992992,-116.84855804834285zM-48.15555955728238,-137.44859959346732L-48.41619916643248,-132.55754023855798L-47.92206662650396,-135.11662595021988zM-62.2496766380942,-142.7964716400593L-67.6824913992992,-116.84855804834285L-63.955740047189195,-118.17640369393281zM-62.2496766380942,-142.7964716400593L-63.955740047189195,-118.17640369393281L-60.33512112078867,-119.94979459701592zM-50.71815949199731,-141.09179842530452L-51.503266422111665,-127.15959360378412L-49.62420332727924,-129.87007004820546zM-58.81652263180653,-143.13500815367834L-60.33512112078867,-119.94979459701592L-56.96587115021322,-122.09776077520513zM-52.93801859777922,-142.26979502424712L-53.982592158038536,-124.53373812574931L-51.503266422111665,-127.15959360378412zM-55.67281977959907,-142.95829837198735L-56.96587115021322,-122.09776077520513L-53.982592158038536,-124.53373812574931zM-48.15555955728238,-137.44859959346732L-49.62420332727924,-129.87007004820546L-48.41619916643248,-132.55754023855798z" style="fill:rgb(83,212,212)"/></svg>
